<?xml version="1.0" standalone="no"?>
<!DOCTYPE svg PUBLIC "-//W3C//DTD SVG 20010904//EN"
 "http://www.w3.org/TR/2001/REC-SVG-20010904/DTD/svg10.dtd">
<svg version="1.0" xmlns="http://www.w3.org/2000/svg"
 width="500.000000pt" height="500.000000pt" viewBox="0 0 500.000000 500.000000"
 preserveAspectRatio="xMidYMid meet">

<g transform="translate(0.000000,500.000000) scale(0.100000,-0.100000)"
fill="#000000" stroke="none">
<path d="M868 3628 c-16 -5 -28 -15 -28 -23 0 -17 27 -38 40 -30 14 9 13 -15
-5 -66 -9 -24 -13 -54 -10 -66 4 -19 11 -21 54 -19 53 3 114 33 119 58 2 9 -6
26 -18 38 -21 21 -21 30 2 62 10 14 9 21 -6 37 -15 16 -31 21 -70 20 -28 0
-63 -5 -78 -11z m89 -43 c-19 -14 -55 -9 -40 5 10 10 46 18 53 12 3 -2 -3 -10
-13 -17z m36 -72 c9 -9 -43 -43 -65 -43 -19 0 -14 28 6 42 14 10 50 10 59 1z"/>
<path d="M1127 3586 c-13 -14 -29 -26 -34 -26 -15 0 -32 -102 -21 -124 10 -19
11 -19 23 -2 12 16 16 16 44 2 35 -19 81 -21 81 -5 0 8 4 8 13 0 15 -11 37 3
37 24 0 6 16 11 35 11 23 0 34 -4 31 -11 -2 -7 0 -18 4 -25 7 -11 11 -11 24
-1 9 8 16 21 16 30 0 9 5 22 11 28 8 8 5 17 -10 32 -12 12 -21 32 -21 46 0 64
-72 26 -110 -57 -13 -29 -25 -54 -26 -56 -1 -2 -20 2 -43 8 -40 10 -57 30 -26
30 24 0 54 36 48 58 -3 11 -15 30 -28 42 l-24 22 -24 -26z m23 -56 c-24 -16
-31 -11 -19 11 8 16 14 18 22 10 9 -9 8 -14 -3 -21z m180 -15 c0 -8 -7 -15
-15 -15 -16 0 -20 12 -8 23 11 12 23 8 23 -8z"/>
<path d="M1545 3578 c-17 -87 -53 -125 -42 -45 6 41 -4 67 -25 67 -16 0 -70
-122 -64 -146 6 -21 36 -35 36 -16 0 4 5 14 10 22 7 12 13 11 35 -10 25 -24
26 -24 45 -4 16 16 57 134 48 138 -2 1 -10 7 -20 14 -14 11 -17 9 -23 -20z"/>
<path d="M1607 3523 c-4 -48 -4 -90 -1 -94 7 -12 96 28 116 51 9 11 14 29 11
40 -6 22 -51 59 -94 77 l-26 11 -6 -85z m79 13 l28 -23 -31 -17 c-18 -9 -34
-16 -38 -16 -3 0 -5 18 -5 40 0 46 8 49 46 16z"/>
<path d="M1816 3570 c-72 -66 -82 -127 -25 -145 28 -9 104 13 124 35 15 17 15
22 -3 63 -11 25 -18 48 -15 51 7 7 -16 36 -28 36 -5 0 -29 -18 -53 -40z m64
-50 c14 -26 7 -36 -35 -50 -57 -19 -70 0 -30 44 29 31 50 33 65 6z"/>
<path d="M1977 3538 c-29 -63 -32 -98 -10 -106 7 -2 18 8 25 23 l12 26 21 -27
c27 -34 50 -27 70 20 21 49 24 121 5 121 -8 0 -18 -17 -25 -40 -18 -71 -29
-76 -35 -15 -7 78 -28 78 -63 -2z"/>
<path d="M240 2792 c-6 -2 -10 -19 -10 -38 0 -38 28 -49 37 -14 5 20 14 20
2234 20 2222 0 2229 0 2229 -20 0 -13 7 -20 20 -20 16 0 20 7 20 35 0 34 -1
35 -37 35 -307 3 -4486 4 -4493 2z"/>
<path d="M370 2535 l0 -175 48 0 c109 1 192 76 192 176 0 101 -85 174 -202
174 l-38 0 0 -175z m155 125 c63 -39 85 -142 45 -208 -24 -39 -89 -71 -142
-72 l-38 0 0 156 0 157 51 -6 c28 -4 65 -15 84 -27z"/>
<path d="M816 2702 c-9 -14 -4 -342 5 -342 5 0 9 72 9 165 l0 165 38 0 c80 0
142 -34 142 -79 0 -7 -15 -28 -34 -46 l-34 -32 41 -86 c22 -48 44 -87 50 -87
5 0 7 6 4 13 -3 6 -20 45 -38 84 l-33 73 27 28 c49 51 29 122 -41 142 -43 12
-129 13 -136 2z"/>
<path d="M1282 2694 c-40 -28 -56 -73 -56 -159 0 -128 38 -178 138 -178 56 0
113 24 101 44 -4 5 -15 3 -28 -6 -27 -19 -125 -20 -149 -1 -63 47 -63 227 -1
276 32 25 119 28 149 5 18 -14 18 -16 -11 -42 -17 -16 -51 -45 -75 -65 -25
-20 -40 -37 -34 -38 14 0 164 120 164 132 0 5 -15 17 -32 28 -41 25 -133 27
-166 4z"/>
<path d="M1718 2552 c-84 -198 -82 -192 -71 -192 5 0 37 68 72 151 35 82 66
148 69 144 3 -3 31 -65 62 -138 l57 -132 -98 -3 c-136 -4 -127 -22 11 -22 61
0 110 3 110 8 0 8 -137 332 -143 338 -2 2 -33 -67 -69 -154z"/>
<path d="M2122 2533 l2 -178 3 158 c2 86 7 157 10 157 4 0 36 -28 70 -62 l63
-62 70 69 70 69 0 -152 0 -152 -120 0 c-73 0 -120 -4 -120 -10 0 -6 48 -10
125 -10 l125 0 0 175 c0 96 -3 175 -7 175 -4 0 -38 -30 -75 -67 l-68 -67 -68
67 c-37 37 -71 67 -75 67 -4 0 -6 -80 -5 -177z"/>
<path d="M2702 2697 c-43 -24 -56 -56 -60 -147 -7 -141 29 -193 133 -193 53 0
105 22 105 44 0 5 -10 3 -22 -5 -14 -10 -44 -16 -80 -16 -45 0 -62 5 -84 23
-53 46 -53 217 1 265 31 27 110 30 155 7 35 -18 40 -3 8 19 -27 19 -123 21
-156 3z"/>
<path d="M3090 2535 l0 -175 100 0 c60 0 100 4 100 10 0 6 -37 10 -90 10 l-90
0 0 165 c0 103 -4 165 -10 165 -6 0 -10 -65 -10 -175z"/>
<path d="M3519 2695 c-41 -22 -59 -72 -59 -159 0 -132 36 -179 135 -179 100 0
139 49 139 178 0 86 -16 131 -56 159 -28 20 -123 20 -159 1z m150 -21 c66 -47
68 -231 3 -280 -9 -7 -43 -14 -75 -14 -51 0 -62 4 -86 28 -53 53 -49 218 6
262 33 25 118 28 152 4z"/>
<path d="M3942 2583 c4 -134 14 -168 57 -207 29 -27 103 -26 139 1 15 11 32
35 39 54 10 30 19 289 9 278 -2 -2 -6 -58 -9 -125 -6 -165 -28 -204 -112 -204
-82 0 -105 47 -105 215 0 78 -4 115 -11 115 -8 0 -10 -38 -7 -127z"/>
<path d="M4418 2704 c-5 -4 -8 -83 -8 -176 l0 -168 50 0 c119 0 193 67 193
175 0 99 -63 162 -170 172 -32 3 -61 2 -65 -3z m132 -36 c62 -33 85 -68 85
-133 0 -87 -53 -142 -148 -152 l-57 -6 0 157 0 156 38 0 c21 0 58 -10 82 -22z"/>
<path d="M230 2325 l0 -35 53 -1 c69 -1 4059 -1 4300 0 l188 1 -3 32 c-4 37
-27 50 -35 19 l-5 -21 -2228 0 c-2219 0 -2228 0 -2233 20 -3 11 -12 20 -21 20
-12 0 -16 -10 -16 -35z"/>
<path d="M3520 1445 l0 -105 35 0 35 0 0 51 0 52 41 -52 c35 -43 46 -51 75
-51 l34 0 0 105 0 105 -34 0 -35 0 -3 -52 -3 -53 -40 53 c-33 44 -44 52 -72
52 l-33 0 0 -105z"/>
<path d="M3310 1430 l0 -90 85 0 c84 0 85 0 85 25 0 24 -3 25 -55 25 -30 0
-55 5 -55 10 0 6 25 10 56 10 52 0 55 1 52 23 -3 19 -11 23 -58 28 l-55 6 58
1 c54 2 57 3 57 27 0 25 -1 25 -85 25 l-85 0 0 -90z"/>
<path d="M3900 1471 c0 -27 -3 -56 -6 -65 -8 -20 -53 -21 -60 -1 -4 9 -19 15
-35 15 -36 0 -38 -22 -4 -55 31 -32 101 -35 136 -6 19 16 24 30 27 90 l4 71
-31 0 c-30 0 -31 -1 -31 -49z"/>
<path d="M4016 1489 c-15 -17 -26 -43 -26 -59 0 -44 44 -90 87 -90 47 0 72 16
89 56 40 95 -84 172 -150 93z m97 -41 c7 -21 -12 -48 -34 -48 -22 0 -34 22
-25 45 7 18 53 20 59 3z"/>
<path d="M4210 1430 l0 -90 30 0 30 0 0 90 0 90 -30 0 -30 0 0 -90z"/>
</g>
</svg>
